<svg version="1.1" id="Layer_1" xmlns="http://www.w3.org/2000/svg" xmlns:xlink="http://www.w3.org/1999/xlink" x="0px" y="0px"
	 width="100%" height="100%" viewBox="310 247 391 300" xml:space="preserve">
<path fill="#5CBDBF" opacity="1.000000" stroke="none" 
	d="
M545.222656,445.279297 
	C540.230469,444.115387 540.391418,447.334839 540.427612,450.232330 
	C540.581726,462.545593 540.845764,474.857605 540.980774,487.170990 
	C541.024536,491.164703 540.854065,495.163849 540.684143,499.156342 
	C539.970032,515.935974 525.001587,518.546448 514.390381,514.977539 
	C511.472229,513.996094 509.375031,513.919189 506.492493,514.982300 
	C500.874695,517.054260 494.900482,516.706299 489.327148,514.659546 
	C483.287506,512.441467 480.894440,507.259552 480.742035,501.204712 
	C480.503418,491.724701 480.646362,482.235229 480.613617,472.749817 
	C480.586029,464.761475 480.545654,456.773163 480.493134,448.784943 
	C480.483185,447.272308 480.348114,445.775696 479.043121,444.760437 
	C478.835785,444.703430 478.668732,444.602966 478.518677,444.623962 
	C460.956024,447.078064 454.941193,441.924225 454.864105,424.211243 
	C454.793793,408.048828 454.825348,391.885956 454.793213,375.723328 
	C454.768921,363.499207 461.909851,355.018311 474.104065,352.704010 
	C480.556091,351.479523 487.060791,352.014587 493.547699,351.907623 
	C495.331085,351.878204 497.115356,351.903137 499.359772,351.903137 
	C483.852753,338.822144 480.359436,329.723358 485.597198,316.876282 
	C489.913788,306.288666 500.645966,299.940369 512.895203,300.728973 
	C522.805054,301.366974 532.470947,309.948151 535.365601,320.677704 
	C538.584290,332.608429 533.996521,342.934784 521.312866,351.435394 
	C526.774902,352.487030 531.820557,351.989807 536.806335,351.985382 
	C555.997620,351.968445 566.010437,361.966400 565.985168,381.261078 
	C565.965271,396.423859 566.112305,411.588074 565.949829,426.749115 
	C565.822876,438.597931 561.008301,444.452911 551.036072,445.763031 
	C549.146423,446.011292 547.399292,445.612305 545.222656,445.279297 
M464.247589,401.499878 
	C464.261780,410.327515 464.251526,419.155304 464.302185,427.982727 
	C464.322357,431.498260 465.879456,434.221649 469.304077,435.256439 
	C472.842682,436.325623 475.853241,434.951691 478.193451,432.196411 
	C480.250519,429.774414 480.688232,426.868225 480.663757,423.772797 
	C480.570282,411.946747 480.596375,400.119720 480.496155,388.293762 
	C480.473175,385.582031 481.067108,383.782806 484.270874,383.705322 
	C487.275360,383.632721 489.648682,384.103668 489.784760,387.759888 
	C489.871490,390.089142 489.966644,392.419952 489.970398,394.750183 
	C490.024353,428.392212 490.061707,462.034271 490.111877,495.676300 
	C490.114105,497.173553 490.046112,498.694946 490.276520,500.163361 
	C490.969940,504.583191 494.208374,506.354980 498.112305,506.352539 
	C502.238007,506.349915 505.061401,504.330200 504.801544,499.529327 
	C504.657776,496.873291 504.938843,494.195709 504.825958,491.536407 
	C504.058807,473.455872 507.951355,455.535187 506.655121,437.440704 
	C506.438568,434.417877 508.029297,433.229401 510.823761,433.146423 
	C513.909180,433.054779 515.446716,434.371918 515.329407,437.615814 
	C515.203125,441.109314 515.306030,444.611084 515.308350,448.109222 
	C515.319580,464.928436 515.353821,481.747711 515.321960,498.566864 
	C515.315796,501.847046 516.308716,504.479736 519.379272,505.965240 
	C522.224731,507.341827 524.904846,506.604004 527.423523,505.019409 
	C530.374084,503.163116 529.833313,500.156464 529.833313,497.362274 
	C529.832886,461.548004 529.834229,425.733734 529.791565,389.919525 
	C529.787415,386.427368 530.089478,383.785950 534.736938,383.672394 
	C539.165222,383.564178 540.782166,385.451630 540.777588,389.518097 
	C540.775330,391.514801 540.938354,393.511505 540.942261,395.508392 
	C540.962708,405.836090 540.973572,416.163940 540.948364,426.491638 
	C540.940308,429.805603 541.343384,432.834534 544.824585,434.450806 
	C550.590881,437.128174 555.811157,434.154724 555.874329,427.721344 
	C556.041138,410.732910 555.979187,393.741730 555.921936,376.751953 
	C555.906250,372.096741 553.661011,368.483826 549.948853,365.767120 
	C545.472168,362.490845 540.347351,361.250092 534.904846,361.234039 
	C518.247375,361.184906 501.589417,361.146423 484.932281,361.231567 
	C482.128723,361.245941 479.290222,361.712158 476.533783,362.286133 
	C468.633087,363.931274 464.456238,368.986938 464.342590,377.013306 
	C464.231750,384.841095 464.268646,392.670990 464.247589,401.499878 
M523.387329,336.715942 
	C523.943787,335.697327 524.614624,334.723938 525.037903,333.652710 
	C527.658630,327.020050 525.697144,319.512787 520.131714,314.650818 
	C515.430664,310.543976 507.361206,309.776764 501.943207,312.921631 
	C495.892517,316.433716 492.981293,323.133667 494.213898,330.366547 
	C495.283661,336.643707 499.347076,340.683685 504.912567,342.385315 
	C511.617126,344.435211 518.135925,343.294891 523.387329,336.715942 
z"/>
<path fill="#5CBDBF" opacity="1.000000" stroke="none" 
	d="
M313.697052,298.999878 
	C313.695801,289.334290 313.805450,280.166840 313.653198,271.003754 
	C313.552490,264.942841 315.962555,260.254364 320.936768,257.081146 
	C330.638580,250.892136 341.044952,246.909622 352.835052,247.026291 
	C381.814728,247.313080 410.796173,247.448441 439.777222,247.552551 
	C446.936493,247.578278 454.098602,247.067383 461.256561,247.130478 
	C472.647095,247.230896 476.993103,253.906387 472.463074,264.325470 
	C468.093384,274.375763 459.440125,278.121552 449.286011,279.035645 
	C444.659943,279.452087 439.957733,278.937958 435.295715,279.060242 
	C428.042206,279.250488 425.040375,282.383606 425.038513,289.607910 
	C425.031616,316.437744 425.062683,343.267609 425.058594,370.097443 
	C425.056244,385.546509 417.652679,392.025513 402.376678,389.768890 
	C400.053589,389.425720 399.150879,390.273010 398.103363,392.065674 
	C390.472198,405.125732 374.783295,405.272003 367.507904,392.320404 
	C366.285522,390.144318 364.975006,389.802673 362.684357,390.149872 
	C349.164825,392.198914 341.537903,386.182343 340.582153,372.768677 
	C340.319672,369.084564 339.718994,367.115356 334.934326,367.977417 
	C323.185181,370.094452 313.810303,361.942657 313.727417,349.993805 
	C313.610626,333.163239 313.697083,316.331268 313.697052,298.999878 
M376.182556,372.491333 
	C376.226013,376.822571 376.007111,381.176605 376.381317,385.479065 
	C376.819702,390.519379 382.159058,392.951294 386.423798,390.352478 
	C389.223846,388.646210 388.912720,385.839203 388.917328,383.213593 
	C388.948639,365.383545 388.873932,347.553070 388.970093,329.723511 
	C388.989288,326.167358 387.610962,321.373749 393.779144,321.295898 
	C399.885834,321.218781 398.226196,325.993164 398.300507,329.282654 
	C398.620209,343.435303 397.865784,357.603180 398.955322,371.748810 
	C399.404785,377.584869 401.932526,380.183105 407.274323,380.007019 
	C412.417816,379.837494 414.501984,377.414459 414.473907,371.451294 
	C414.366516,348.637054 414.195709,325.823059 414.128418,303.008728 
	C414.113708,298.016296 414.422028,293.022614 414.591888,288.029877 
	C414.937469,277.872467 421.847717,270.139709 431.983063,268.589050 
	C438.610077,267.575104 445.301147,268.327423 451.947693,267.905884 
	C458.284302,267.503998 462.006927,264.110596 462.058594,258.874390 
	C461.092743,258.040771 459.901245,258.068695 458.745453,258.067810 
	C420.419220,258.039368 382.091858,257.848206 343.767365,258.098450 
	C330.570923,258.184631 324.252533,265.203674 324.233673,278.130493 
	C324.232208,279.130310 324.223267,280.130127 324.222321,281.129944 
	C324.200623,303.625885 324.235382,326.122162 324.111603,348.617554 
	C324.086700,353.147339 325.293243,356.550812 330.066345,357.648499 
	C335.224976,358.834839 339.606598,355.436188 339.800354,349.790222 
	C340.063019,342.134338 339.940155,334.465149 339.976074,326.801666 
	C339.991699,323.466370 341.148499,321.574585 344.990692,321.615936 
	C348.582703,321.654572 350.702362,322.572205 350.802521,326.553619 
	C350.995239,334.216248 351.274292,341.880035 350.632965,349.528137 
	C349.933411,357.870514 350.609619,366.177460 351.164764,374.479645 
	C351.469666,379.039032 354.681763,380.684601 358.806854,380.601807 
	C362.880859,380.520020 364.705963,377.965546 364.932800,374.125183 
	C365.040710,372.298370 364.984375,370.461334 364.987427,368.628906 
	C365.009857,355.131348 364.960785,341.633026 365.106628,328.136841 
	C365.135040,325.506714 364.519562,322.266846 368.566681,321.394470 
	C373.739899,320.279358 375.970825,321.925629 376.012482,327.503448 
	C376.121979,342.166656 376.131073,356.830658 376.182556,372.491333 
z"/>
<path fill="#5CBDBF" opacity="1.000000" stroke="none" 
	d="
M585.620605,421.964325 
	C585.955811,407.616425 594.195618,401.958282 611.271606,404.097870 
	C612.873596,400.549530 614.708557,397.129089 618.285828,394.827911 
	C627.033630,389.200806 637.582275,391.433929 642.853394,400.420044 
	C644.160278,402.648132 645.201538,403.757446 648.258057,403.207825 
	C661.020020,400.912872 669.935730,408.600281 670.249634,421.716858 
	C670.284912,423.188965 670.059143,424.718048 671.122681,426.350464 
	C673.952576,426.138092 676.880615,425.688080 679.799500,425.741272 
	C689.668152,425.921082 697.115479,432.863007 697.204102,442.676453 
	C697.450806,469.983734 697.403015,497.294098 697.371521,524.603088 
	C697.364624,530.593689 693.450500,534.484009 688.895691,537.387573 
	C680.399170,542.803955 671.451721,546.462891 660.865906,546.375610 
	C623.567566,546.067810 586.264526,546.316406 548.963318,546.368225 
	C537.423279,546.384277 532.847351,539.535583 537.886230,529.032104 
	C542.357849,519.711060 550.942261,516.109192 560.558228,514.927673 
	C565.484253,514.322449 570.548218,514.945435 575.529114,514.656128 
	C582.511475,514.250549 585.739380,511.068970 585.557983,504.803955 
	C584.762939,477.343323 584.731323,449.886017 585.620605,421.964325 
M670.395081,451.687500 
	C670.390625,456.517670 670.275146,461.351135 670.418091,466.176941 
	C670.525269,469.796967 670.051880,472.299194 665.398376,472.177765 
	C661.063171,472.064667 659.644226,470.358429 659.696838,466.107819 
	C659.874329,451.781799 659.764343,437.452026 659.735596,423.123718 
	C659.720947,415.806396 657.654175,413.046356 652.367371,413.142670 
	C647.168884,413.237366 645.266296,415.980377 645.261414,423.405762 
	C645.251831,438.067474 645.119934,452.730865 645.310791,467.389984 
	C645.373474,472.200714 642.582947,472.207245 639.166748,472.275299 
	C635.546997,472.347412 633.707275,470.791779 634.146851,467.212952 
	C635.067993,459.713287 634.144531,452.241974 634.100464,444.757904 
	C634.031921,433.099915 633.764954,421.439911 634.474365,409.784210 
	C634.779480,404.772003 632.436157,402.147003 628.113281,402.050934 
	C623.895020,401.957184 621.396179,404.614380 621.238586,409.404083 
	C621.194824,410.735321 621.245056,412.069580 621.245605,413.402435 
	C621.253479,431.229736 621.217834,449.057251 621.305237,466.884155 
	C621.321472,470.195923 620.733398,472.358185 616.717712,472.260559 
	C613.012939,472.170441 611.805603,470.439514 611.825012,466.956238 
	C611.893250,454.627747 611.817993,442.298492 611.789062,429.969513 
	C611.782410,427.138214 611.930847,424.290100 611.678345,421.479370 
	C611.227173,416.457489 607.828613,413.694153 602.875916,414.030731 
	C598.308594,414.341125 595.843201,417.479614 595.841736,422.562622 
	C595.834045,449.879395 596.009277,477.193481 595.632324,504.514282 
	C595.454773,517.385010 586.135315,524.941406 574.857910,525.267090 
	C569.863708,525.411316 564.855225,525.146606 559.865967,525.361816 
	C553.626160,525.630920 548.562012,529.836365 547.924255,534.940186 
	C549.212341,535.986755 550.769714,535.684692 552.226929,535.684509 
	C590.213928,535.679504 628.200989,535.640808 666.187988,535.630676 
	C672.811951,535.628906 678.499634,533.164551 683.713806,529.290955 
	C685.870239,527.688965 686.953369,525.727844 686.942383,522.938416 
	C686.838989,496.781372 686.850891,470.623871 686.746277,444.466858 
	C686.724182,438.947693 684.392334,436.445190 679.543579,436.147217 
	C675.116760,435.875122 671.222168,439.139404 670.634216,443.853241 
	C670.347107,446.155731 670.463379,448.508484 670.395081,451.687500 
z"/>
<path fill="#5CBDBF" opacity="1.000000" stroke="none" 
	d="
M435.735046,519.045227 
	C433.008148,520.019531 434.086365,521.878601 434.277283,523.384216 
	C435.976807,536.788025 428.533203,545.254272 415.009949,545.258179 
	C388.845184,545.265747 362.678467,545.110474 336.516846,545.403564 
	C328.652466,545.491699 323.535706,541.544434 319.513336,535.808777 
	C313.864471,527.753784 310.765320,518.838928 310.818054,508.704865 
	C311.007141,472.375153 310.900787,436.043640 310.800049,399.713074 
	C310.786346,394.767609 311.338684,389.961426 316.114258,387.666229 
	C321.296204,385.175690 326.727020,386.324921 331.199463,389.765869 
	C338.010712,395.006073 341.670074,402.178894 342.190826,410.776215 
	C342.442291,414.927979 342.216156,419.106903 342.271515,423.272675 
	C342.380981,431.513367 345.639832,434.770752 353.760010,434.770782 
	C381.924713,434.770996 410.089478,434.738495 438.254150,434.760590 
	C451.194550,434.770721 458.864563,444.107666 456.356934,456.799133 
	C455.968140,458.766876 455.935730,459.999359 457.997284,461.303162 
	C471.862610,470.072144 471.460510,484.604126 457.258911,492.838409 
	C456.836884,493.083130 456.455872,493.398651 455.815308,493.850922 
	C457.047485,497.929382 458.098175,502.119659 456.435516,506.387878 
	C453.688782,513.439026 449.347656,518.410461 441.060425,518.424500 
	C439.405273,518.427307 437.750702,518.779419 435.735046,519.045227 
M344.415131,443.477570 
	C335.595947,440.062653 332.541382,432.769806 331.818604,424.174805 
	C331.442993,419.708038 331.764252,415.181976 331.784698,410.682770 
	C331.802124,406.846161 330.548889,403.475616 327.962036,400.662567 
	C326.610260,399.192566 325.012177,397.431763 322.873474,398.196503 
	C320.724915,398.964783 321.374268,401.314606 321.390656,403.056000 
	C321.534698,418.373138 321.842957,433.689178 321.913422,449.006470 
	C322.013123,470.669220 321.972137,492.332764 321.947479,513.995911 
	C321.939758,520.783936 324.202820,526.571594 328.535706,531.839661 
	C332.573730,536.749207 337.721100,534.655823 342.467346,534.676697 
	C365.297119,534.777405 388.127747,534.693909 410.958008,534.647095 
	C413.117859,534.642700 415.285004,534.517151 417.435150,534.307800 
	C420.816956,533.978455 422.967194,532.125671 423.604675,528.752991 
	C424.288788,525.133484 423.246979,522.137329 420.018646,520.142029 
	C417.981628,518.882996 415.718689,518.524170 413.321442,518.515381 
	C405.992584,518.488464 398.662628,518.211121 391.336212,518.297058 
	C387.402618,518.343079 386.525513,516.370239 386.690155,512.982300 
	C386.902283,508.616821 390.118866,509.174011 392.854950,509.090393 
	C408.335999,508.617432 423.822357,510.248383 439.303589,508.991791 
	C444.384460,508.579346 447.156433,505.729065 446.974731,501.080627 
	C446.792877,496.426910 443.758636,493.513977 438.835602,493.452057 
	C431.509033,493.359833 424.181000,493.314880 416.854004,493.344849 
	C408.364166,493.379547 399.874176,493.480896 391.385468,493.625732 
	C387.249939,493.696259 385.935425,491.598541 385.973785,487.704102 
	C386.013214,483.701172 387.887238,482.621826 391.585693,482.669495 
	C402.915558,482.815582 414.248566,482.718018 425.580353,482.711853 
	C434.079071,482.707245 442.578094,482.734650 451.076416,482.673401 
	C454.944366,482.645538 457.541504,480.863739 457.676086,476.756439 
	C457.817596,472.440125 455.288147,470.420746 451.184570,470.150940 
	C449.357086,470.030823 447.521393,470.005249 445.689056,469.994232 
	C427.867249,469.887054 410.045288,469.803497 392.223572,469.682617 
	C389.073151,469.661255 386.382538,469.475861 386.434723,464.912598 
	C386.484192,460.587128 388.663086,459.928314 392.092896,460.055573 
	C396.752167,460.228516 401.414642,460.315979 406.075989,460.432251 
	C417.237274,460.710754 428.402069,460.948029 439.531586,459.804077 
	C443.650970,459.380676 446.453613,457.181122 446.637360,452.823761 
	C446.814484,448.623840 444.691681,445.880096 440.471039,444.983307 
	C439.333832,444.741638 438.172058,444.455688 437.022034,444.457764 
	C417.862579,444.492065 398.705780,444.121338 379.542023,444.649078 
	C368.090271,444.964417 356.569580,446.107178 344.415131,443.477570 
z"/>
<path fill="#5CBDBF" opacity="1.000000" stroke="none" 
	d="
M700.165100,334.000000 
	C700.199585,354.326965 700.255554,374.153961 700.256165,393.980927 
	C700.256470,404.848907 693.483154,409.488892 683.405212,405.402130 
	C673.077087,401.213898 669.901245,392.218597 668.716003,382.244659 
	C668.227966,378.137787 668.691528,373.923126 668.633850,369.758728 
	C668.511047,360.894135 664.949341,357.345490 656.189697,357.337524 
	C627.698730,357.311554 599.207764,357.301880 570.716797,357.284607 
	C559.157410,357.277618 551.724426,348.699341 553.796631,337.296173 
	C554.378296,334.095062 553.849609,332.439636 550.848816,331.095459 
	C544.802490,328.387085 542.712463,322.912323 542.339417,316.860931 
	C541.925659,310.149078 544.731262,304.741577 550.902100,301.740417 
	C553.876038,300.294098 554.503357,298.862427 553.658142,295.627106 
	C550.837402,284.830444 559.043396,274.260254 570.241577,273.772705 
	C572.370605,273.679993 574.560730,274.109680 576.675171,273.220093 
	C577.517212,270.932373 575.907959,269.045959 575.741394,266.935974 
	C574.869873,255.892746 582.548340,247.949249 595.486694,247.214752 
	C602.462280,246.818787 609.490723,246.825348 616.471619,247.153702 
	C635.124817,248.031097 653.783875,247.643250 672.437012,247.583527 
	C679.004761,247.562500 684.186218,249.828659 688.261047,254.608627 
	C695.579895,263.194000 700.246704,272.902802 700.188599,284.516205 
	C700.106812,300.843781 700.165039,317.172028 700.165100,334.000000 
M562.699158,322.874268 
	C574.026611,322.866180 585.354126,322.861420 596.681580,322.848877 
	C604.177490,322.840546 611.674438,322.891907 619.168823,322.776764 
	C622.929626,322.718964 624.093201,324.581238 624.018066,328.050690 
	C623.935974,331.839600 621.567566,332.249420 618.637817,332.247650 
	C604.145813,332.239014 589.653809,332.238098 575.161926,332.287689 
	C567.575928,332.313660 563.402527,335.151459 563.367065,340.157074 
	C563.329651,345.432800 566.914978,347.788239 574.963318,347.794312 
	C603.114624,347.815552 631.266113,347.788147 659.417114,347.894165 
	C668.893250,347.929871 675.055603,352.714905 677.834045,361.753723 
	C678.868896,365.120514 679.253662,368.568634 679.180542,372.106384 
	C679.091125,376.430939 678.910156,380.791931 679.341370,385.079620 
	C679.935669,390.988739 683.547363,394.685425 688.612122,395.024017 
	C690.173462,383.961517 689.802612,372.822388 689.457031,361.718536 
	C688.638184,335.414215 689.132385,309.107758 689.328003,282.807800 
	C689.383484,275.353943 687.453979,269.108917 683.249084,263.272614 
	C680.623413,259.628265 677.296204,257.804779 672.588318,258.161865 
	C667.784424,258.526245 662.933228,258.285431 658.102783,258.279602 
	C637.114197,258.254211 616.125671,258.195587 595.137085,258.200562 
	C589.627686,258.201874 586.896790,260.435944 586.420288,265.045502 
	C585.941101,269.681427 588.698242,273.111542 593.835510,273.996216 
	C595.615234,274.302673 597.471741,274.231049 599.292419,274.219910 
	C605.953918,274.179199 612.615845,274.131104 619.276123,274.004669 
	C622.752014,273.938721 623.952820,275.646912 623.870361,278.958588 
	C623.779846,282.592407 621.762024,283.286224 618.642822,283.272491 
	C603.151611,283.204163 587.659485,283.204407 572.168335,283.290588 
	C566.632446,283.321411 563.155090,286.844971 563.303345,291.884430 
	C563.448547,296.820251 566.084412,298.977783 572.000183,298.970001 
	C587.658203,298.949371 603.316467,298.964294 618.973999,298.862457 
	C622.904785,298.836914 624.198547,300.685944 624.179749,304.399445 
	C624.161621,307.978363 623.197815,310.241974 619.138306,310.078888 
	C616.809753,309.985352 614.474854,310.045593 612.142822,310.044037 
	C594.485840,310.032227 576.828735,310.054565 559.171936,309.988495 
	C554.892029,309.972504 552.459167,311.971558 552.322632,316.160767 
	C552.185791,320.357910 554.549866,322.596222 558.765625,322.797211 
	C559.763489,322.844757 560.763367,322.849976 562.699158,322.874268 
z"/>
</svg>