<?xml version="1.0" standalone="no"?>
<!DOCTYPE svg PUBLIC "-//W3C//DTD SVG 20010904//EN"
 "http://www.w3.org/TR/2001/REC-SVG-20010904/DTD/svg10.dtd">
<svg version="1.0" xmlns="http://www.w3.org/2000/svg"
 width="1792.000000pt" height="592.000000pt" viewBox="0 0 1792.000000 592.000000"
 preserveAspectRatio="xMidYMid meet">

<g transform="translate(0.000000,592.000000) scale(0.100000,-0.100000)"
fill="#000000" stroke="none">
<path d="M13400 4296 l0 -375 -157 0 c-86 -1 -159 -3 -162 -6 -3 -3 1 -20 8
-38 7 -18 14 -40 14 -49 1 -10 4 -18 7 -19 3 0 46 -3 95 -5 50 -2 97 -7 105
-10 30 -13 135 11 112 25 -10 6 16 131 27 131 8 0 1 153 -7 162 -10 10 11 270
22 287 7 11 5 13 -7 8 -15 -6 -17 2 -16 56 1 46 3 54 8 32 l7 -30 6 30 c4 17
2 32 -3 33 -5 2 -9 28 -9 57 0 66 -7 85 -31 85 -18 0 -19 -14 -19 -374z"/>
<path d="M3016 4573 c-4 -21 -5 -191 -4 -378 l3 -340 -120 -2 c-66 -1 -143 -2
-170 -2 -39 -1 -53 -5 -63 -21 -11 -18 -10 -25 8 -48 24 -31 92 -66 101 -51 3
5 21 7 40 5 135 -18 159 -17 199 5 l40 23 -6 93 c-5 67 -4 93 4 91 8 -2 13 45
17 150 3 83 2 152 -2 152 -11 0 -4 133 8 145 14 14 10 97 -6 129 -8 15 -15 36
-15 46 0 10 -6 23 -14 29 -12 10 -15 5 -20 -26z m36 -368 c3 -14 1 -25 -3 -25
-5 0 -9 11 -9 25 0 14 2 25 4 25 2 0 6 -11 8 -25z m-5 -77 c-3 -8 -6 -5 -6 6
-1 11 2 17 5 13 3 -3 4 -12 1 -19z"/>
<path d="M5046 4543 c-3 -3 -6 -46 -6 -94 l0 -89 -247 -2 -248 -3 -3 -764 -2
-763 22 6 c13 3 29 6 36 6 6 0 12 12 12 26 0 22 -2 25 -15 14 -13 -11 -15 -6
-15 33 0 42 13 71 22 48 1 -6 3 56 3 137 0 81 -4 155 -9 165 -5 10 -5 39 -2
65 14 99 18 202 9 214 -14 18 -17 148 -4 148 7 0 11 26 11 65 0 41 -4 65 -11
65 -8 0 -9 22 -4 73 4 39 8 108 10 152 4 130 15 151 90 175 29 10 40 10 43 1
4 -13 123 -15 138 -2 12 12 144 19 144 8 0 -5 7 -4 15 3 13 11 13 15 3 21 -10
7 -10 9 -1 9 16 0 43 64 43 100 0 16 3 30 8 32 4 2 5 33 4 71 -3 52 -8 69 -22
77 -9 5 -20 6 -24 3z m-459 -1355 c-2 -13 -4 -3 -4 22 0 25 2 35 4 23 2 -13 2
-33 0 -45z"/>
<path d="M12321 4504 c-166 -44 -245 -190 -171 -312 24 -40 40 -41 40 -3 0 38
9 61 24 61 7 0 39 25 71 56 48 46 70 59 114 70 31 7 60 10 65 6 6 -3 49 -5 96
-3 77 2 177 -13 190 -28 13 -17 133 -80 141 -75 5 3 10 0 10 -5 3 -26 4 -30
12 -37 15 -15 6 18 -18 65 -52 103 -159 178 -295 207 -83 18 -210 17 -279 -2z"/>
<path d="M1994 4431 c-335 -53 -493 -309 -511 -826 -6 -186 8 -371 39 -500
l22 -90 8 70 c4 39 5 88 2 110 -13 94 -16 196 -7 207 12 16 17 123 7 140 -11
18 -5 129 7 144 12 15 20 59 23 129 3 67 24 136 47 158 10 10 19 24 19 32 0 8
4 15 9 15 5 0 13 17 18 37 5 22 17 42 29 48 29 15 109 87 116 106 6 15 69 39
103 39 10 0 26 6 34 14 20 18 139 46 143 34 5 -13 138 -23 138 -10 0 7 22 4
63 -7 39 -11 61 -22 59 -30 -1 -7 3 -11 10 -8 22 7 111 -50 130 -85 15 -26 17
-28 12 -8 -21 79 -84 165 -154 210 -94 60 -246 89 -366 71z"/>
<path d="M15095 4370 c-208 -30 -367 -137 -447 -300 -42 -84 -81 -223 -99
-348 -16 -118 -7 -485 15 -577 22 -90 47 -168 53 -162 8 8 -19 137 -29 137
-10 0 -5 126 6 137 11 12 7 143 -5 143 -14 0 -5 130 10 139 12 8 21 55 22 116
1 55 25 141 44 165 7 8 21 44 31 79 15 54 27 74 81 130 34 36 63 69 63 74 0 4
5 7 11 7 16 0 129 71 129 82 0 16 54 29 130 33 41 1 118 6 170 10 82 6 103 5
159 -14 35 -11 78 -21 95 -21 35 0 123 -42 146 -70 8 -10 30 -21 48 -25 17 -4
32 -11 32 -16 0 -5 5 -9 10 -9 14 0 -15 56 -56 107 -112 138 -382 218 -619
183z"/>
<path d="M3487 4354 c-9 -10 -9 -76 1 -89 9 -13 72 -35 100 -35 12 0 22 -4 22
-10 0 -13 137 -13 144 -1 6 9 106 5 133 -4 17 -6 25 30 21 91 l-3 49 -206 3
c-113 1 -208 -1 -212 -4z"/>
<path d="M5470 4351 c-19 -5 -24 -13 -22 -32 7 -64 9 -66 72 -80 33 -7 60 -16
60 -19 0 -9 135 1 138 11 2 4 32 5 68 2 l64 -6 0 67 0 66 -177 -1 c-98 -1
-189 -4 -203 -8z"/>
<path d="M6480 4006 l0 -356 29 0 c32 0 51 18 32 29 -16 10 -16 110 -1 200 12
67 12 75 -4 87 -24 17 -21 121 5 146 10 10 21 34 25 54 10 53 48 66 169 58 72
-5 102 -4 121 6 20 11 48 12 147 3 78 -7 126 -8 134 -1 15 12 131 -1 141 -16
9 -16 142 -79 149 -72 14 14 -32 98 -72 134 -82 72 -103 76 -512 80 l-363 3 0
-355z"/>
<path d="M9531 4159 c-67 -165 -221 -556 -221 -562 0 -4 23 -7 51 -7 54 0 47
-7 84 85 4 11 10 28 11 38 2 10 14 37 26 60 12 23 23 49 24 57 2 8 8 16 13 18
6 2 11 10 11 17 0 19 60 67 76 61 8 -4 21 -9 29 -12 18 -7 19 -13 -38 141 -22
61 -44 114 -48 119 -5 5 -12 -2 -18 -15z"/>
<path d="M7987 3982 c-4 -121 -10 -162 -31 -229 -68 -211 -230 -347 -503 -420
-98 -27 -100 -27 -535 -31 l-438 -3 0 -235 0 -235 23 3 c20 3 22 8 22 68 0 41
5 68 12 73 7 4 12 25 11 47 -2 60 18 96 65 116 35 16 68 18 209 17 94 -1 170
2 173 8 8 11 142 12 149 0 7 -11 126 -14 140 -2 19 15 139 32 146 20 8 -12 87
13 145 46 22 13 59 26 83 30 23 4 42 10 42 13 0 4 18 15 39 25 21 11 50 29 64
42 13 13 28 21 31 18 8 -8 57 37 51 47 -2 3 14 28 35 54 22 27 40 52 40 57 0
5 7 6 15 3 13 -6 20 6 16 29 -3 16 32 137 39 137 24 0 41 135 18 142 -14 5
-24 148 -10 148 14 0 -11 125 -30 143 -14 14 -16 1 -21 -131z"/>
<path d="M3050 3870 c0 -22 5 -40 10 -40 6 0 10 18 10 40 0 22 -4 40 -10 40
-5 0 -10 -18 -10 -40z"/>
<path d="M11690 3814 c0 -2 13 -28 30 -57 16 -29 30 -48 30 -44 0 5 7 1 16 -7
8 -9 12 -21 9 -27 -11 -16 82 -97 126 -111 22 -6 39 -16 39 -22 1 -12 79 -71
95 -72 21 -1 116 -55 122 -69 3 -8 9 -12 14 -9 11 6 146 -33 151 -44 6 -17
131 -72 142 -63 12 9 70 -21 60 -32 -3 -3 14 -11 38 -17 93 -24 183 -53 188
-60 3 -4 32 -21 65 -38 33 -17 85 -54 115 -84 54 -52 55 -53 58 -26 5 38 -30
99 -83 146 -58 51 -143 95 -330 172 -437 179 -491 202 -600 263 -125 69 -193
115 -242 164 -24 23 -43 40 -43 37z"/>
<path d="M16454 3800 c3 -14 11 -52 17 -85 19 -95 17 -373 -4 -480 -52 -261
-151 -449 -324 -616 -145 -140 -281 -219 -483 -279 -358 -106 -845 -60 -1140
107 -59 33 -185 126 -234 172 -35 33 -38 34 -31 11 4 -14 16 -37 27 -52 11
-16 16 -28 12 -28 -5 0 10 -18 31 -40 21 -22 44 -40 50 -40 6 0 22 -11 35 -25
13 -14 30 -25 38 -25 8 0 12 -6 9 -14 -7 -16 16 -39 41 -41 18 -2 84 -42 115
-70 10 -8 41 -20 69 -25 29 -6 54 -14 58 -19 7 -12 109 -53 118 -47 10 6 115
-14 127 -24 18 -13 122 -22 130 -10 3 5 10 8 13 6 4 -2 32 -5 62 -7 30 -1 58
-6 61 -11 9 -13 98 -21 112 -10 18 14 115 23 123 11 8 -14 96 0 111 18 13 16
113 46 113 33 0 -12 103 19 115 34 6 7 32 16 58 20 27 4 56 15 65 24 34 33
120 92 135 92 14 0 31 16 32 30 0 12 84 80 98 80 18 0 60 54 50 64 -4 3 5 19
19 34 14 15 28 35 31 45 4 10 11 16 16 13 9 -6 23 18 26 45 1 9 22 47 47 86
25 38 48 87 52 108 4 22 13 51 20 65 7 14 16 47 20 73 3 27 12 63 20 80 18 38
27 127 24 222 -2 39 -3 107 -3 151 0 58 -3 80 -12 77 -12 -5 -25 56 -28 127
-1 40 -20 108 -35 130 -8 12 -10 9 -6 -10z"/>
<path d="M9157 3233 c-8 -14 -157 -390 -157 -397 0 -10 90 -7 110 4 15 8 31
47 32 77 0 5 4 14 10 21 6 7 12 26 14 42 4 37 36 100 41 83 3 -8 14 -6 36 7
18 10 43 20 57 22 14 2 31 7 38 11 7 5 45 8 85 7 39 -1 115 -1 169 0 53 1 100
0 106 -4 5 -3 20 -3 33 0 13 2 64 5 113 5 79 0 91 -3 122 -26 l33 -25 -31 90
-31 90 -388 0 c-213 0 -390 -3 -392 -7z"/>
<path d="M13590 3130 c-1 -8 -2 -18 -2 -21 1 -3 -3 -46 -8 -96 -18 -171 -71
-284 -185 -397 -174 -171 -413 -256 -719 -256 -234 0 -360 36 -537 153 l-26
18 -43 -66 -42 -65 -158 0 c-176 0 -194 -3 -180 -30 5 -9 7 -20 3 -23 -3 -4 5
-23 18 -43 24 -35 25 -35 79 -30 36 3 48 2 35 -4 -15 -6 -5 -9 35 -9 30 0 50
3 43 7 -7 4 18 6 55 4 63 -4 71 -2 137 37 38 22 72 37 75 33 3 -4 21 -8 40 -9
87 -5 168 -26 205 -53 6 -5 36 -13 68 -20 31 -6 57 -15 57 -19 0 -11 102 -23
112 -13 4 4 38 4 75 0 106 -12 165 -9 178 8 8 11 33 17 80 19 99 4 97 4 91 13
-3 5 10 14 29 19 19 6 37 7 40 3 6 -10 125 28 125 39 0 9 87 71 99 71 5 0 29
24 55 53 26 28 63 69 84 91 39 41 87 142 71 152 -5 3 -6 10 -3 16 4 7 9 6 14
-2 12 -19 34 88 32 150 -2 30 1 69 6 85 5 21 1 56 -14 115 -12 47 -23 78 -24
70z"/>
<path d="M12071 3108 c0 -7 11 -35 24 -63 l24 -50 -6 45 c-3 25 -10 53 -15 63
-10 20 -28 23 -27 5z"/>
<path d="M3016 3032 c-2 -4 -16 -37 -29 -72 -97 -258 -251 -437 -469 -543
-167 -82 -338 -113 -563 -104 -318 14 -547 102 -774 297 l-68 58 14 -42 c9
-27 26 -49 49 -65 33 -23 58 -50 112 -121 13 -16 32 -30 42 -30 10 0 31 -15
47 -34 29 -35 126 -91 142 -82 5 3 26 -1 47 -8 22 -8 35 -15 29 -16 -5 -1 1
-6 15 -12 14 -6 29 -10 33 -9 14 3 90 -20 135 -40 23 -11 59 -19 80 -19 86 2
137 -2 149 -11 7 -6 31 -9 55 -5 24 3 85 10 136 16 51 5 110 14 132 19 23 5
40 5 40 0 0 -8 25 1 116 42 23 11 48 19 57 19 20 0 67 21 67 30 0 8 110 85
124 86 21 2 46 16 41 23 -2 5 11 23 30 41 19 19 35 40 35 47 0 7 17 23 38 37
47 30 56 41 71 96 7 25 22 53 32 63 10 10 19 25 19 33 0 8 7 28 15 44 9 16 17
42 19 57 3 16 13 56 24 90 19 58 19 119 2 108 -5 -3 -11 -1 -15 5 -7 12 -22
13 -29 2z"/>
<path d="M5057 2664 c-4 -4 -7 -61 -7 -126 l0 -118 -775 0 -776 0 7 -37 c8
-48 16 -57 65 -81 35 -18 49 -19 112 -11 78 11 254 2 263 -12 3 -5 10 -6 16
-3 6 4 32 6 59 5 27 0 49 3 49 8 0 4 27 8 60 8 33 0 60 -3 60 -8 0 -5 29 -9
65 -9 36 0 65 4 65 8 0 5 84 8 188 7 103 -1 187 -3 187 -4 0 -1 34 -3 75 -4
85 -4 236 15 268 32 13 7 26 10 31 7 5 -3 14 8 22 25 10 25 10 35 0 50 -14 23
-5 113 14 144 10 17 10 28 0 59 -15 43 -37 70 -48 60z"/>
<path d="M9487 2664 c-4 -4 -7 -61 -7 -126 l0 -118 -647 -2 -648 -3 2 -34 c1
-18 11 -44 23 -55 11 -12 20 -28 20 -34 0 -8 20 -12 60 -12 33 0 60 4 60 10 0
6 27 10 60 10 33 0 60 -4 60 -8 0 -4 27 -9 60 -10 33 -1 60 3 60 8 0 13 117
13 122 0 4 -14 107 -15 121 -1 15 15 110 14 125 -1 14 -14 97 -11 126 4 24 13
115 18 122 6 6 -9 118 -11 127 -2 9 9 110 9 125 0 7 -4 19 -3 27 4 19 16 56
97 51 112 -3 7 -7 60 -10 117 -3 57 -9 107 -14 110 -5 3 -11 12 -13 19 -3 7
-8 10 -12 6z"/>
<path d="M7001 2543 l-1 -123 -770 0 c-763 0 -770 0 -770 -20 0 -11 -4 -20
-10 -20 -5 0 -10 -5 -10 -11 0 -5 5 -7 10 -4 6 3 10 0 10 -8 0 -21 32 -46 71
-54 19 -3 39 -13 45 -21 8 -11 23 -12 67 -7 32 4 59 10 61 14 3 4 51 3 108 -2
69 -6 115 -5 139 2 44 13 131 14 144 2 18 -16 83 -19 111 -5 30 16 110 19 119
4 3 -5 33 -10 66 -10 33 0 59 4 59 10 0 12 102 13 116 1 18 -17 89 -20 118 -5
35 18 125 19 131 2 6 -14 108 -18 121 -5 4 4 15 7 24 7 32 0 68 38 75 80 4 22
10 40 14 40 14 0 -7 167 -27 210 l-20 45 -1 -122z"/>
<path d="M11267 2654 c-4 -4 -7 -58 -7 -121 l0 -113 -769 0 c-849 0 -800 4
-761 -63 22 -37 74 -72 92 -61 14 9 122 5 126 -4 1 -4 52 -3 112 2 80 6 117 6
133 -3 26 -13 118 -11 123 4 5 12 115 7 129 -6 12 -12 112 -12 120 1 7 11 108
14 118 3 11 -10 127 -12 127 -2 0 12 117 12 125 -1 8 -12 107 -13 121 -1 13
12 123 20 127 8 5 -17 61 3 94 33 26 24 33 41 39 87 13 104 -21 265 -49 237z"/>
<path d="M11828 1210 c-21 -38 -38 -72 -38 -75 0 -3 13 -5 30 -5 25 0 37 11
80 66 27 37 50 71 50 75 0 5 -19 9 -42 9 -43 0 -43 -1 -80 -70z"/>
<path d="M7447 1263 c-2 -5 -7 -20 -11 -35 -8 -36 -30 -35 -73 2 -59 53 -123
38 -162 -37 -19 -37 -14 -53 18 -53 23 0 30 6 35 25 10 39 31 40 83 6 52 -35
91 -39 122 -13 22 17 53 91 44 104 -6 10 -51 10 -56 1z"/>
<path d="M2927 1244 c-4 -4 -7 -49 -7 -101 0 -83 -8 -111 -24 -84 -11 17 -84
23 -123 11 -86 -28 -133 -109 -133 -229 0 -113 32 -181 103 -217 39 -21 109
-14 147 14 27 21 28 21 33 2 4 -15 14 -20 41 -20 l36 0 -2 313 -3 312 -30 3
c-17 2 -34 0 -38 -4z m-41 -249 l35 -14 -3 -128 -3 -128 -47 -23 c-56 -28 -90
-22 -122 22 -29 39 -35 168 -11 220 29 61 83 79 151 51z"/>
<path d="M13960 1150 c0 -55 -2 -100 -4 -100 -2 0 -21 7 -42 16 -81 34 -167
-5 -211 -93 -23 -48 -27 -69 -26 -138 0 -97 25 -161 76 -197 45 -32 129 -32
175 0 l32 23 0 -21 c0 -18 5 -21 38 -18 l37 3 3 270 c2 149 0 289 -3 313 -6
40 -8 42 -41 42 l-34 0 0 -100z m-35 -154 l35 -15 0 -126 0 -125 -32 -20 c-47
-29 -82 -33 -116 -16 -40 21 -57 67 -56 153 2 133 68 191 169 149z"/>
<path d="M11490 936 l0 -303 31 -7 c17 -3 35 -6 40 -6 5 0 9 139 9 310 l0 310
-40 0 -40 0 0 -304z"/>
<path d="M17080 968 c0 -150 3 -290 6 -310 6 -33 10 -38 33 -38 15 0 32 5 39
12 9 9 15 9 24 0 20 -20 60 -13 90 15 36 35 35 43 -5 36 -19 -3 -49 2 -70 11
l-37 15 0 125 c0 122 1 125 25 145 60 46 132 35 160 -26 10 -20 18 -66 20
-102 1 -39 11 -86 22 -112 l19 -44 15 25 c10 17 14 57 14 130 0 85 -4 112 -20
144 -41 82 -123 106 -207 63 l-48 -24 0 103 0 104 -40 0 -40 0 0 -272z"/>
<path d="M338 1216 c-66 -18 -112 -57 -145 -123 -26 -54 -28 -67 -28 -178 0
-115 1 -122 30 -174 68 -124 222 -165 356 -95 26 13 29 19 29 65 l0 51 -22
-16 c-13 -9 -33 -23 -45 -32 -61 -43 -155 -36 -209 17 -44 43 -64 105 -64 200
0 104 34 172 102 207 62 32 118 25 188 -24 l50 -34 0 50 c0 44 -3 51 -28 64
-25 13 -131 37 -156 35 -6 0 -32 -6 -58 -13z"/>
<path d="M14895 1221 c-53 -14 -93 -40 -115 -76 -19 -30 -22 -47 -18 -102 4
-60 7 -68 40 -99 23 -21 59 -39 95 -49 83 -23 133 -46 144 -66 18 -34 10 -85
-16 -111 -49 -49 -131 -46 -220 8 l-55 33 0 -50 c0 -49 1 -50 43 -69 58 -25
152 -35 206 -20 25 6 61 28 84 50 39 36 41 41 45 106 5 111 -31 149 -181 189
-75 19 -107 48 -107 97 0 96 117 126 225 57 l46 -29 -3 51 c-3 50 -4 53 -40
65 -49 17 -136 25 -173 15z"/>
<path d="M3768 1213 c-57 -4 -58 -5 -58 -33 0 -28 3 -30 35 -30 l35 0 0 -230
0 -230 -36 0 c-34 0 -35 -1 -32 -32 l3 -33 108 -3 107 -3 0 36 c0 33 -2 35
-35 35 l-35 0 0 229 0 230 38 3 c32 3 37 7 40 29 2 20 -2 28 -20 33 -23 6 -40
6 -150 -1z"/>
<path d="M5820 1180 l0 -40 45 0 45 0 0 40 0 40 -45 0 -45 0 0 -40z"/>
<path d="M8265 1209 c-3 -8 -4 -142 -3 -299 l3 -285 36 -3 36 -3 6 69 c3 38 3
87 0 110 l-6 42 49 0 c155 1 236 67 238 195 1 75 -23 121 -82 153 -35 20 -62
25 -157 29 -93 5 -116 3 -120 -8z m238 -84 c31 -20 40 -43 39 -101 -2 -77 -33
-104 -129 -112 l-63 -5 -2 59 c-1 49 0 168 1 183 2 11 132 -9 154 -24z"/>
<path d="M10530 1180 l0 -40 40 0 40 0 0 40 0 40 -40 0 -40 0 0 -40z"/>
<path d="M12520 1180 l0 -40 45 0 45 0 0 40 0 40 -45 0 -45 0 0 -40z"/>
<path d="M1490 1136 c0 -64 -1 -66 -25 -66 -22 0 -25 -4 -25 -35 0 -31 3 -35
25 -35 l25 0 0 -145 c0 -151 6 -181 46 -216 28 -25 61 -32 110 -24 42 6 44 8
44 41 0 34 0 35 -35 28 -25 -4 -43 -1 -60 10 -25 16 -25 18 -25 161 l0 145 60
0 60 0 0 35 0 35 -60 0 -59 0 -3 63 -3 62 -37 3 -38 3 0 -65z"/>
<path d="M5579 1143 c-1 -32 -1 -61 0 -65 0 -5 -10 -8 -24 -8 -22 0 -25 -4
-25 -35 0 -31 3 -35 25 -35 l25 0 -2 -147 c-2 -201 16 -235 126 -237 63 0 76
7 76 46 0 30 0 30 -43 24 -36 -6 -46 -3 -63 15 -16 18 -19 40 -22 160 l-4 138
64 3 c63 3 63 3 63 33 0 30 0 30 -62 33 l-63 3 0 64 0 65 -35 0 -35 0 -1 -57z"/>
<path d="M734 1061 c-74 -34 -114 -109 -114 -216 0 -112 34 -174 118 -213 44
-20 64 -24 108 -19 30 3 71 14 92 24 32 15 37 23 40 56 2 20 1 37 -1 37 -3 0
-30 -12 -62 -26 -109 -50 -193 -12 -219 98 l-6 27 147 3 148 3 -4 59 c-6 98
-31 140 -104 171 -48 20 -93 19 -143 -4z m143 -75 c12 -11 25 -36 29 -53 l7
-33 -112 0 c-61 0 -111 3 -111 8 0 14 43 77 59 87 46 28 93 25 128 -9z"/>
<path d="M1175 1056 c-27 -14 -51 -26 -51 -26 -1 0 -1 8 0 18 1 13 -7 17 -34
17 l-35 0 0 -220 0 -220 35 0 35 0 5 170 5 170 46 23 c55 27 92 22 117 -16 14
-21 17 -56 20 -187 l2 -160 35 -3 35 -3 0 173 c0 145 -3 179 -18 207 -39 77
-115 99 -197 57z"/>
<path d="M2110 1064 c-80 -35 -120 -109 -120 -223 0 -84 17 -131 64 -177 98
-98 261 -55 301 79 40 135 1 266 -95 315 -51 25 -100 28 -150 6z m115 -64 c56
-21 86 -171 51 -255 -25 -58 -105 -83 -155 -49 -34 24 -51 74 -51 151 0 127
62 188 155 153z"/>
<path d="M3184 1061 c-80 -37 -118 -118 -112 -234 4 -94 29 -142 93 -182 43
-26 57 -30 119 -29 43 0 86 7 109 17 34 16 37 21 37 57 0 22 -2 40 -5 40 -2 0
-23 -10 -45 -21 -110 -57 -208 -18 -234 94 l-6 27 145 0 c120 0 147 3 151 15
10 24 -14 138 -34 164 -49 66 -142 88 -218 52z m131 -57 c19 -8 45 -55 45 -83
0 -17 -8 -20 -77 -23 -43 -2 -92 -2 -110 0 -30 3 -31 4 -21 32 21 62 100 98
163 74z"/>
<path d="M4135 1056 c-27 -14 -51 -26 -52 -26 -2 0 -3 9 -3 20 0 16 -7 20 -35
20 l-35 0 0 -226 0 -225 38 3 37 3 3 167 2 167 28 19 c46 32 87 35 119 8 l28
-24 3 -172 4 -171 36 3 37 3 -1 175 c0 145 -3 180 -17 207 -37 70 -114 89
-192 49z"/>
<path d="M4928 1071 c-85 -28 -138 -112 -138 -221 0 -92 16 -139 61 -182 65
-62 189 -75 267 -28 26 16 32 26 32 55 0 41 -2 42 -46 15 -18 -12 -54 -23 -81
-26 -80 -9 -138 35 -157 119 l-6 27 122 2 c68 0 133 0 146 -1 21 -2 22 2 22
59 0 76 -18 120 -63 154 -38 29 -112 42 -159 27z m120 -84 c12 -13 25 -37 28
-55 l7 -32 -112 0 c-61 0 -111 3 -111 8 0 13 42 76 59 89 9 7 37 13 62 13 35
0 51 -5 67 -23z"/>
<path d="M5297 1066 c-20 -7 -44 -20 -53 -27 -24 -20 -44 -65 -44 -99 0 -68
38 -103 140 -130 67 -17 90 -35 90 -70 0 -66 -109 -80 -192 -25 l-38 25 0 -45
c0 -43 2 -47 35 -61 155 -65 306 23 267 154 -16 53 -39 71 -122 92 -84 22
-100 33 -100 71 0 57 80 77 155 39 52 -27 55 -26 55 15 0 28 -5 37 -28 49 -44
23 -121 28 -165 12z"/>
<path d="M6115 1073 c-40 -10 -88 -57 -112 -111 -22 -47 -25 -64 -21 -131 6
-91 32 -149 81 -180 46 -28 118 -28 163 0 l34 21 0 -47 c0 -85 -69 -121 -173
-91 -30 9 -58 16 -61 16 -3 0 -6 -18 -6 -39 l0 -40 57 -11 c131 -28 229 21
253 126 5 21 10 139 10 262 l0 222 -34 0 c-19 0 -37 -4 -40 -9 -3 -5 -23 -3
-43 5 -39 13 -72 16 -108 7z m110 -77 l35 -15 0 -119 c0 -118 0 -120 -26 -137
-34 -22 -83 -29 -117 -16 -37 14 -57 64 -57 142 0 76 22 127 64 145 40 17 59
17 101 0z"/>
<path d="M6502 1070 c-58 -12 -62 -16 -62 -60 l0 -38 50 19 c71 27 125 25 155
-6 14 -13 25 -36 25 -50 0 -22 -4 -25 -37 -25 -72 0 -154 -26 -186 -59 -26
-25 -31 -39 -34 -88 -3 -46 0 -65 17 -91 39 -62 125 -79 197 -38 40 23 41 23
46 4 4 -15 13 -19 39 -16 l33 3 0 175 c0 195 -8 225 -66 256 -38 19 -120 26
-177 14z m166 -281 c-3 -55 -6 -64 -31 -83 -38 -28 -113 -29 -133 -2 -20 28
-18 82 5 105 11 11 37 23 58 26 21 4 43 8 48 10 6 2 20 4 33 4 22 1 23 -2 20
-60z"/>
<path d="M6958 1070 c-100 -30 -143 -100 -143 -230 0 -75 3 -91 27 -132 32
-54 76 -84 136 -94 39 -6 42 -9 42 -39 0 -44 -20 -59 -75 -53 l-45 6 0 -34 c0
-24 5 -34 21 -39 33 -11 104 4 127 25 25 24 46 93 38 125 -5 18 -1 24 19 29
22 6 25 12 25 51 0 25 -3 45 -6 45 -3 0 -20 -10 -37 -22 -44 -32 -116 -32
-150 0 -45 42 -62 158 -33 227 31 73 122 94 188 45 34 -25 35 -25 38 15 4 51
1 54 -52 70 -57 16 -79 17 -120 5z"/>
<path d="M7262 1070 c-58 -12 -62 -16 -62 -56 0 -38 6 -40 65 -19 93 33 165
10 165 -54 0 -28 -1 -29 -74 -36 -88 -8 -133 -28 -163 -74 -46 -69 -19 -177
53 -207 47 -20 84 -17 137 9 43 22 46 23 50 5 4 -13 15 -18 41 -18 l36 0 0
173 c0 187 -8 221 -60 259 -30 21 -127 31 -188 18z m168 -285 l0 -65 -40 -20
c-77 -39 -140 -15 -140 55 0 42 29 72 79 81 20 3 41 7 46 9 6 2 20 4 33 4 21
1 22 -3 22 -64z"/>
<path d="M7695 1062 c-82 -40 -115 -102 -115 -219 1 -114 44 -193 123 -222 68
-26 160 0 209 57 53 63 63 215 19 300 -43 84 -153 123 -236 84z m124 -67 c37
-19 61 -79 61 -156 0 -73 -22 -124 -61 -144 -60 -32 -119 -11 -145 51 -19 45
-18 167 1 204 30 57 86 75 144 45z"/>
<path d="M8775 1075 c-5 -2 -27 -6 -47 -10 -37 -6 -38 -7 -38 -51 l0 -45 29
15 c91 48 191 25 191 -43 0 -27 -2 -28 -64 -34 -122 -11 -178 -51 -192 -135
-5 -31 -1 -51 15 -85 36 -74 117 -98 195 -57 35 17 40 18 51 4 7 -10 22 -14
40 -12 l30 3 0 187 0 187 -28 29 c-37 39 -134 63 -182 47z m143 -268 c4 -66
-5 -85 -48 -107 -52 -27 -86 -25 -115 5 -54 53 -19 117 75 136 79 15 85 13 88
-34z"/>
<path d="M9411 1069 c-48 -9 -61 -21 -61 -56 0 -31 10 -34 66 -17 53 17 125
14 149 -6 8 -7 15 -27 15 -44 l0 -32 -86 -11 c-56 -7 -95 -17 -112 -30 -34
-25 -62 -79 -62 -121 0 -47 35 -109 72 -128 41 -21 119 -14 158 15 35 26 38
26 36 4 -1 -14 8 -19 37 -21 l38 -3 -3 190 -3 191 -31 31 c-45 45 -115 57
-213 38z m169 -284 l0 -65 -42 -21 c-47 -24 -105 -21 -125 8 -21 28 -16 77 10
102 22 20 80 37 135 40 21 1 22 -3 22 -64z"/>
<path d="M9909 1071 c-14 -5 -38 -16 -52 -26 -26 -17 -27 -17 -27 4 0 19 -5
22 -36 19 l-37 -3 -4 -302 -4 -303 40 0 41 0 0 90 c0 50 2 90 4 90 2 0 21 -7
42 -16 86 -36 186 17 220 118 24 72 16 211 -14 260 -12 20 -33 43 -46 52 -30
19 -93 28 -127 17z m55 -71 c44 -16 66 -65 66 -148 0 -94 -18 -138 -65 -158
-28 -11 -44 -12 -73 -4 -64 17 -63 15 -60 151 l3 124 45 23 c51 25 50 25 84
12z"/>
<path d="M10257 1066 c-49 -18 -67 -34 -84 -73 -17 -42 -17 -77 2 -113 18 -35
51 -54 125 -69 65 -14 90 -34 90 -72 0 -63 -90 -78 -177 -30 l-53 29 0 -44 c0
-41 2 -45 38 -60 52 -23 158 -23 200 -1 67 36 91 121 52 184 -23 38 -42 50
-112 64 -69 14 -98 33 -98 64 0 65 88 86 168 40 l42 -24 0 44 c0 39 -3 44 -31
54 -54 19 -122 22 -162 7z"/>
<path d="M10821 1069 c-87 -27 -141 -109 -141 -218 0 -86 14 -134 51 -176 57
-64 150 -81 242 -42 34 15 37 19 37 56 0 23 -2 41 -4 41 -3 0 -27 -12 -53 -26
-109 -58 -193 3 -193 142 0 136 90 201 194 140 24 -14 47 -26 50 -26 3 0 6 18
6 41 0 36 -3 41 -35 55 -48 20 -113 25 -154 13z"/>
<path d="M11165 1065 c-84 -30 -133 -131 -122 -252 10 -107 57 -171 140 -194
90 -24 171 13 213 98 23 47 26 62 23 142 -4 80 -7 94 -34 133 -34 48 -102 88
-150 88 -16 -1 -48 -7 -70 -15z m124 -71 c34 -24 51 -75 51 -154 0 -105 -36
-160 -106 -160 -117 0 -160 229 -59 308 33 26 81 28 114 6z"/>
<path d="M11765 1065 c-82 -29 -133 -133 -122 -252 10 -99 46 -157 120 -188
79 -33 177 -4 223 65 35 53 50 143 35 216 -27 139 -131 203 -256 159z m135
-83 c68 -69 61 -235 -12 -286 -45 -32 -113 -15 -143 36 -22 39 -31 144 -16
191 28 83 116 113 171 59z"/>
<path d="M12184 1061 c-47 -21 -86 -68 -104 -125 -16 -51 -9 -181 13 -223 40
-76 141 -105 220 -63 l37 20 0 -35 c0 -87 -62 -129 -157 -106 -26 7 -56 14
-65 17 -15 4 -18 -1 -18 -35 l0 -40 56 -11 c107 -22 196 7 238 80 19 32 21 54
24 283 l4 247 -36 0 c-19 0 -37 -4 -40 -9 -3 -5 -23 -3 -43 5 -52 18 -81 17
-129 -5z m135 -62 l31 -11 0 -124 c0 -120 -1 -124 -25 -140 -37 -24 -100 -30
-129 -10 -45 29 -61 149 -30 226 25 62 81 84 153 59z"/>
<path d="M12817 1066 c-93 -25 -137 -100 -137 -230 0 -83 22 -139 69 -179 62
-51 160 -59 229 -17 28 17 32 25 30 55 -1 19 -3 35 -5 35 -1 0 -24 -12 -50
-26 -112 -60 -193 3 -193 149 0 71 24 120 70 145 33 17 92 9 129 -17 41 -29
51 -26 51 13 0 45 -18 62 -80 75 -60 13 -52 13 -113 -3z"/>
<path d="M13120 1067 c-42 -11 -45 -14 -48 -49 -4 -43 -4 -43 62 -23 73 22
113 19 141 -10 14 -13 25 -35 25 -48 0 -22 -5 -25 -67 -30 -77 -8 -148 -39
-177 -79 -27 -38 -27 -118 0 -156 25 -34 79 -62 120 -62 17 0 52 11 77 24 45
22 47 22 47 4 0 -16 6 -19 38 -16 l37 3 0 180 c0 199 -5 219 -68 252 -40 20
-131 26 -187 10z m180 -276 c0 -52 -3 -62 -26 -80 -56 -44 -135 -36 -154 15
-26 68 35 119 148 123 l32 1 0 -59z"/>
<path d="M14225 1062 c-80 -39 -117 -106 -118 -217 0 -91 15 -136 63 -179 64
-58 163 -71 253 -33 34 15 37 19 37 57 0 23 -3 40 -7 38 -80 -41 -109 -50
-150 -45 -50 5 -88 35 -109 84 -25 58 -21 63 49 63 34 0 99 3 145 7 l82 6 0
51 c0 60 -31 130 -71 158 -38 29 -125 33 -174 10z m152 -91 c44 -66 38 -71
-88 -71 -97 0 -110 2 -105 16 3 9 6 19 6 24 0 5 14 23 31 40 28 28 37 31 82
28 46 -3 54 -7 74 -37z"/>
<path d="M15308 1071 c-87 -28 -130 -102 -132 -225 -1 -66 4 -90 23 -128 39
-80 108 -117 194 -104 62 9 106 42 136 100 21 40 25 63 25 130 0 70 -4 88 -29
134 -16 29 -43 62 -61 73 -37 23 -116 33 -156 20z m122 -89 c41 -42 55 -102
42 -182 -9 -52 -17 -70 -42 -92 -44 -40 -92 -38 -135 5 -38 38 -50 91 -40 175
14 109 109 160 175 94z"/>
<path d="M15996 1065 c-85 -30 -126 -105 -126 -229 1 -172 127 -270 266 -207
76 34 114 110 114 226 0 161 -118 259 -254 210z m115 -71 c40 -20 59 -68 59
-150 0 -106 -41 -164 -117 -164 -66 0 -103 60 -103 167 0 131 70 195 161 147z"/>
<path d="M16427 1068 c-117 -32 -172 -209 -109 -351 24 -55 79 -94 142 -103
43 -6 110 6 138 25 13 8 30 91 19 91 -3 0 -27 -11 -53 -25 -56 -30 -88 -31
-130 -6 -63 38 -85 185 -39 255 39 59 109 71 169 31 20 -14 41 -25 46 -25 6 0
10 18 10 41 0 36 -3 41 -35 55 -49 20 -113 25 -158 12z"/>
<path d="M16738 1068 l-48 -10 0 -44 0 -45 32 17 c17 9 56 18 87 21 66 6 98
-13 103 -62 3 -30 3 -30 -62 -37 -128 -14 -182 -52 -196 -136 -9 -57 26 -129
72 -148 50 -21 102 -17 151 11 42 25 43 25 43 5 0 -16 6 -20 35 -20 l35 0 0
185 0 185 -32 36 c-47 51 -115 64 -220 42z m182 -277 c0 -55 -2 -61 -30 -81
-17 -12 -48 -24 -70 -27 -87 -12 -124 97 -47 139 24 13 77 25 120 27 27 1 27
0 27 -58z"/>
<path d="M17573 1069 l-53 -11 0 -42 0 -43 53 18 c75 26 122 24 152 -6 14 -13
25 -35 25 -48 0 -23 -5 -25 -71 -31 -131 -12 -180 -50 -186 -144 -3 -45 0 -64
17 -90 39 -63 125 -79 198 -37 40 23 42 23 42 4 0 -15 7 -19 34 -19 33 0 33 0
40 58 10 88 -3 301 -20 334 -8 15 -27 34 -43 43 -39 20 -124 26 -188 14z m175
-280 c-3 -53 -7 -65 -29 -81 -39 -29 -99 -34 -128 -11 -27 22 -32 86 -8 110
17 17 97 41 140 42 l28 1 -3 -61z"/>
<path d="M1742 848 l3 -223 37 -3 37 -3 3 162 3 162 27 20 c16 12 46 22 70 23
43 2 43 2 46 43 3 38 1 41 -23 41 -28 0 -79 -23 -107 -48 -17 -14 -18 -13 -18
16 0 31 -2 32 -40 32 l-40 0 2 -222z"/>
<path d="M4390 1063 c0 -5 34 -106 76 -226 l77 -218 35 3 34 3 79 215 c44 118
79 218 79 222 0 5 -17 8 -38 8 l-38 0 -54 -165 c-30 -90 -57 -165 -60 -165 -3
0 -25 60 -49 133 -67 202 -64 197 -105 197 -20 0 -36 -3 -36 -7z"/>
<path d="M5830 844 l0 -225 38 3 37 3 3 223 2 222 -40 0 -40 0 0 -226z"/>
<path d="M9082 848 l3 -223 37 -3 37 -3 3 163 3 162 34 23 c21 14 49 23 72 23
39 0 39 0 39 41 l0 42 -42 -7 c-23 -4 -57 -18 -75 -31 l-32 -25 -3 27 c-3 24
-8 28 -41 31 l-37 3 2 -223z"/>
<path d="M10532 848 l3 -223 38 -3 37 -3 -2 223 -3 223 -38 3 -37 3 2 -223z"/>
<path d="M12530 844 l0 -225 38 3 37 3 3 120 c1 66 -1 166 -4 223 l-6 102 -34
0 -34 0 0 -226z"/>
<path d="M15622 848 l4 -223 37 -3 36 -3 3 163 3 162 34 23 c21 14 49 23 72
23 39 0 39 0 39 40 0 36 -2 40 -25 40 -28 0 -79 -23 -107 -48 -17 -14 -18 -13
-18 16 0 31 -2 32 -41 32 l-41 0 4 -222z"/>
</g>
</svg>
